<svg height="512pt" viewBox="-33 0 511 512" width="512pt" xmlns="http://www.w3.org/2000/svg"><path d="m422.164062 206.296875v281.636719c0 9.148437-7.414062 16.566406-16.5625 16.566406h-364.46875c-9.148437 0-16.566406-7.417969-16.566406-16.566406v-281.632813zm0 0" fill="#d9e7ec"/><path d="m398.164062 206.296875v281.636719c0 9.148437-7.414062 16.566406-16.5625 16.566406h24c9.148438 0 16.5625-7.417969 16.5625-16.566406v-281.636719zm0 0" fill="#aad4ec"/><path d="m422.164062 201.296875v253.503906c0 9.148438-7.414062 16.566407-16.5625 16.566407h-364.46875c-9.148437 0-16.566406-7.417969-16.566406-16.566407v-253.5zm0 0" fill="#f2f7fb"/><path d="m398.164062 201.296875v253.503906c0 9.148438-7.414062 16.566407-16.5625 16.566407h24c9.148438 0 16.5625-7.417969 16.5625-16.566407v-253.503906zm0 0" fill="#e6f1fa"/><path d="m422.164062 178.164062v-104.398437c0-9.148437-7.414062-16.566406-16.5625-16.566406h-364.46875c-9.148437 0-16.566406 7.417969-16.566406 16.566406v104.398437zm0 0" fill="#e24242"/><path d="m405.601562 57.199219h-24c9.148438 0 16.5625 7.417969 16.5625 16.566406v104.398437h24v-104.398437c0-9.148437-7.414062-16.566406-16.5625-16.566406zm0 0" fill="#d13838"/><path d="m432.734375 206.300781h-418.734375c-3.3125 0-6-2.6875-6-6v-21.136719c0-3.3125 2.6875-6 6-6h418.734375c3.3125 0 6 2.6875 6 6v21.136719c0 3.3125-2.6875 6-6 6zm0 0" fill="#e24242"/><path d="m432.734375 173.164062h-24c3.3125 0 6 2.6875 6 6v21.136719c0 3.3125-2.6875 6-6 6h24c3.3125 0 6-2.6875 6-6v-21.136719c0-3.3125-2.6875-6-6-6zm0 0" fill="#d13838"/><g fill="#fdbf00"><path d="m90.835938 90.332031c0 9.148438 7.417968 16.566407 16.566406 16.566407 9.148437 0 16.566406-7.417969 16.566406-16.566407v-66.265625c0-9.148437-7.417969-16.566406-16.566406-16.566406-9.148438 0-16.566406 7.417969-16.566406 16.566406zm0 0"/><path d="m322.765625 90.332031c0 9.148438 7.417969 16.566407 16.566406 16.566407 9.148438 0 16.566407-7.417969 16.566407-16.566407v-66.265625c0-9.148437-7.417969-16.566406-16.566407-16.566406-9.148437 0-16.566406 7.417969-16.566406 16.566406zm0 0"/><path d="m165.382812 297.417969v124.25c0 9.148437 7.417969 16.566406 16.566407 16.566406h82.835937c9.148438 0 16.566406-7.417969 16.566406-16.566406l-.003906-124.25zm0 0"/></g><path d="m165.382812 297.417969c-9.042968 0-16.394531-7.246094-16.5625-16.25-.175781-9.285157 7.710938-16.882813 16.996094-16.882813h1.847656c3.3125 0 6-2.6875 6-6v-2.285156c0-9.148438 7.417969-16.566406 16.566407-16.566406h66.269531c9.148438 0 16.566406 7.417968 16.566406 16.566406v2.285156c0 3.3125 2.6875 6 6 6h1.847656c9.285157 0 17.175782 7.597656 17 16.882813-.167968 9.003906-7.519531 16.25-16.566406 16.25zm0 0" fill="#fde9aa"/><path d="m438.734375 165.664062h-9.070313v-91.898437c0-13.269531-10.792968-24.066406-24.0625-24.066406h-42.203124v-25.632813c0-13.269531-10.796876-24.066406-24.066407-24.066406s-24.066406 10.796875-24.066406 24.066406v25.632813h-183.800781v-25.632813c0-13.269531-10.792969-24.066406-24.066406-24.066406-13.269532 0-24.0625 10.796875-24.0625 24.066406v25.632813h-42.203126c-13.269531 0-24.066406 10.796875-24.066406 24.066406v91.898437h-9.066406c-4.144531 0-7.5 3.359376-7.5 7.5v33.136719c0 4.140625 3.355469 7.5 7.5 7.5h9.066406v274.132813c0 13.269531 10.796875 24.066406 24.066406 24.066406h364.46875c13.269532 0 24.0625-10.796875 24.0625-24.066406v-274.132813h9.070313c4.144531 0 7.5-3.359375 7.5-7.5v-33.136719c0-4.140624-3.355469-7.5-7.5-7.5zm-108.46875-141.597656c0-5 4.066406-9.066406 9.066406-9.066406s9.066407 4.066406 9.066407 9.066406v66.269532c0 4.996093-4.066407 9.0625-9.066407 9.0625s-9.066406-4.066407-9.066406-9.0625zm-231.929687 0c0-5 4.066406-9.066406 9.0625-9.066406 5 0 9.066406 4.066406 9.066406 9.066406v66.269532c0 4.996093-4.066406 9.0625-9.066406 9.0625-4.996094 0-9.0625-4.066407-9.0625-9.0625zm307.265624 472.933594h-364.46875c-4.996093 0-9.066406-4.066406-9.066406-9.066406v-10.847656c2.800782 1.144531 5.863282 1.78125 9.066406 1.78125h364.46875c3.207032 0 6.265626-.636719 9.0625-1.78125v10.847656c0 5-4.066406 9.066406-9.0625 9.066406zm9.0625-42.199219c0 5-4.0625 9.066407-9.0625 9.066407h-364.46875c-4.996093 0-9.066406-4.066407-9.066406-9.066407v-241h382.601563v241zm16.570313-256h-9.019531c-.015625 0-.03125-.003906-.050782-.003906-.015624 0-.03125.003906-.046874.003906h-397.53125c-.007813 0-.011719 0-.019532 0-.003906 0-.011718 0-.015625 0h-9.050781v-18.136719h9.058594.011718.007813 66.824219c4.144531 0 7.5-3.355468 7.5-7.5 0-4.140624-3.355469-7.5-7.5-7.5h-59.335938v-91.898437c0-5 4.066406-9.066406 9.066406-9.066406h42.203126v18.136719h-9.070313c-4.144531 0-7.5 3.355468-7.5 7.5 0 4.140624 3.355469 7.5 7.5 7.5h10.269531c3.160156 9.605468 12.210938 16.5625 22.863282 16.5625 10.652343 0 19.703124-6.957032 22.863281-16.5625h10.269531c4.144531 0 7.5-3.359376 7.5-7.5 0-4.144532-3.355469-7.5-7.5-7.5h-9.066406v-18.136719h183.800781v18.136719h-9.066406c-4.140625 0-7.5 3.355468-7.5 7.5 0 4.140624 3.359375 7.5 7.5 7.5h10.269531c3.160156 9.605468 12.210938 16.5625 22.863281 16.5625 10.652344 0 19.703125-6.957032 22.863281-16.5625h10.269532c4.144531 0 7.5-3.359376 7.5-7.5 0-4.144532-3.355469-7.5-7.5-7.5h-9.066406v-18.136719h42.199218c5 0 9.066406 4.066406 9.066406 9.066406v91.898437h-292.265624c-4.140626 0-7.5 3.359376-7.5 7.5 0 4.144532 3.359374 7.5 7.5 7.5h299.738281.027343.03125 9.039063zm0 0"/><path d="m223.367188 339.617188c-4.144532 0-7.5 3.359374-7.5 7.5v41.417968c0 4.140625 3.355468 7.5 7.5 7.5 4.144531 0 7.5-3.359375 7.5-7.5v-41.417968c0-4.140626-3.355469-7.5-7.5-7.5zm0 0"/><path d="m190.230469 339.617188c-4.140625 0-7.5 3.359374-7.5 7.5v41.417968c0 4.140625 3.359375 7.5 7.5 7.5 4.144531 0 7.5-3.359375 7.5-7.5v-41.417968c0-4.140626-3.355469-7.5-7.5-7.5zm0 0"/><path d="m256.5 339.617188c-4.140625 0-7.5 3.359374-7.5 7.5v41.417968c0 4.140625 3.359375 7.5 7.5 7.5 4.144531 0 7.5-3.359375 7.5-7.5v-41.417968c0-4.140626-3.355469-7.5-7.5-7.5zm0 0"/><path d="m157.882812 303.714844v117.953125c0 13.269531 10.796876 24.066406 24.066407 24.066406h82.832031c13.273438 0 24.066406-10.796875 24.066406-24.066406v-9.066407h25.636719c4.144531 0 7.5-3.355468 7.5-7.5v-74.550781c0-4.144531-3.355469-7.5-7.5-7.5h-25.636719v-19.332031c9.609375-3.160156 16.570313-12.214844 16.570313-22.867188 0-13.269531-10.796875-24.066406-24.066407-24.066406h-.785156v-.785156c0-13.269531-10.796875-24.066406-24.066406-24.066406h-66.265625c-13.273437 0-24.070313 10.796875-24.070313 24.066406v.785156h-.777343c-13.273438 0-24.070313 10.796875-24.070313 24.066406 0 10.652344 6.957032 19.703126 16.566406 22.863282zm106.898438 127.019531h-82.832031c-5 0-9.066407-4.066406-9.066407-9.066406v-116.75h100.964844l.003906 116.75c-.003906 5-4.070312 9.066406-9.070312 9.066406zm42.203125-92.683594v59.550781h-18.136719v-59.550781zm-141.601563-66.265625h8.273438.007812 16.566407c4.144531 0 7.5-3.359375 7.5-7.5s-3.355469-7.5-7.5-7.5h-9.066407v-.78125c0-5 4.066407-9.070312 9.066407-9.070312h66.269531c5 0 9.066406 4.070312 9.066406 9.070312v.78125h-33.917968c-4.140626 0-7.5 3.359375-7.5 7.5s3.359374 7.5 7.5 7.5h41.417968.007813 8.273437c5 0 9.066406 4.066406 9.066406 9.066406 0 4.996094-4.054687 9.054688-9.046874 9.066407-.007813 0-.011719 0-.019532 0h-115.964844c-.003906 0-.011718 0-.019531 0-4.988281-.011719-9.046875-4.074219-9.046875-9.066407 0-5 4.066406-9.066406 9.066406-9.066406zm0 0"/></svg>