<svg version="1" xmlns="http://www.w3.org/2000/svg" width="933.333" height="933.333" viewBox="0 0 700.000000 700.000000"><path d="M183.5 1.3c-9.2 3.1-15.8 8.6-20.3 17.2-2.7 4.9-2.7 5.4-3 27.2l-.3 22.2-33.2.3c-31.3.3-33.5.4-37.8 2.4-5.7 2.7-11.4 7.6-14.7 12.8-5.1 8.2-5.2 9.3-5.2 78.2v64.1l-7.7.5c-14.7.9-14.8 1.1-14.8 34v26l3.3 2.9c3 2.7 3.8 2.9 11.2 2.9h8v189.2c0 206.8-.3 195.1 5.9 204.1 3.8 5.5 7.5 8.7 13.8 11.8l4.8 2.4h257c251.4 0 257.1 0 262-1.9 6.5-2.6 14.7-10.3 17.6-16.9l2.4-5.2.5-191.5.5-191.5 7.5-.3c14.7-.5 15-1.2 15-33.4 0-22.3-.2-24.6-2-27.5-2.2-3.7-6.7-5.3-15.2-5.3h-5.7l-.3-67.3-.3-67.2-2.7-5c-3.5-6.8-9.2-12.2-15.8-15.4l-5.5-2.6-32.6-.3-32.7-.3-.4-21.2c-.4-19.3-.6-21.6-2.6-26.1-3.6-8-8.5-13.1-16-16.8C518.3.9 516.6.5 509.5.5c-10.3.1-16.5 2.7-23.3 9.9C478 19 477 23.2 477 47.5V68H226.2l-.4-20.8c-.4-18.4-.7-21.3-2.7-26.4-5.8-15-24.8-24.3-39.6-19.5zm16 21.9c5.4 4.3 5.5 4.8 5.5 55.4 0 40.5-.2 47-1.6 49.9-3.8 8.1-14 9.3-19.8 2.4l-2.6-3.1V78.4c0-44.2.2-49.7 1.6-52 3.7-5.5 12-7.1 16.9-3.2zm316.9-.1c5.7 4.5 5.6 3.7 5.6 54.9 0 41-.2 47.6-1.6 50.5-3.8 8.1-14 9.3-19.8 2.4l-2.6-3.1V78.4c0-44.2.2-49.7 1.6-52 3.6-5.4 12-7.1 16.8-3.3zm96.1 435.5c0 182.4.5 169.4-6.1 173.4-3.1 2-6.3 2-254.9 2-276.5 0-256 .5-259.8-5.9-1.6-2.7-1.7-14.3-1.7-169.5V292l261.3.2 261.2.3v166.1zm-261 195.9c139.7 0 255.5-.4 257.3-.8l3.2-.9v9.2c0 6.7-.4 9.7-1.6 11.6-3.9 5.8 14.9 5.4-259.6 5.4-203.3-.1-252.7-.3-254.6-1.4-4.7-2.6-6.2-6.4-6.2-15.9v-8.8l3.8.8c2 .4 118 .8 257.7.8z"/><path d="M297 318.4c-12.5 3.5-22.2 14.7-23.7 27.5l-.6 4.9-5.1.6c-10.8 1.4-21.2 9.2-25.9 19.4-3.4 7.2-3.1 19.9.5 27.2 3.2 6.4 8.5 12 14.8 15.3l4.5 2.4.5 84.9c.5 84.7.5 84.9 2.7 89.6 3.1 6.9 10.7 14 17.9 16.9l5.9 2.4h126l6.3-2.9c7.6-3.5 15.2-11.4 17.7-18.3.9-2.6 1.9-9.2 2.2-14.6l.6-9.7h18.4c20.1 0 22.9-.6 25.1-5.5 1.6-3.6 1.7-107.6.1-110.8-2.8-5.4-4-5.7-24.6-5.7H441V415.3l3.9-1.8c5.2-2.3 12.4-9.6 15.3-15.4 1.9-3.8 2.3-6.2 2.3-14.1 0-8.1-.4-10.2-2.4-14.2-5.1-9.9-15.3-17.2-25.9-18.5l-5-.6-.4-5.1c-.8-10.2-8.6-20.6-18.8-25.5l-5.5-2.6-51.5-.2c-38.9-.1-52.6.2-56 1.1zm106.2 21.7c2.7 2 5.8 7.2 5.8 9.8 0 .6-9.6 1.1-25.4 1.3-25.2.3-25.5.3-28 2.7-3.3 3.1-4.1 7-2.2 11.5 2.7 6.4 3.8 6.6 44.7 6.6h36.2l3.3 2.5c6.8 5.2 6.4 15.1-.8 19.5-3.2 2-4.8 2-85.8 2-79.9 0-82.6-.1-85.4-1.9-5.5-3.6-7.1-10.2-4.1-16.1 2.6-5.1 4.3-5.5 27.3-6l21.4-.5 2.9-3.3c4.8-5.4 3.5-12.9-2.8-16.1-1.2-.6-5.3-1.1-9.2-1.1-6.5 0-7.1-.2-7.1-2 0-1.2.7-3.4 1.5-5 3.1-6 2.4-5.9 55.8-6 48.4 0 48.9 0 51.9 2.1zm16.8 158c0 78.9-.1 81.3-2 84.3-3.8 6.3-1.5 6.1-66.9 6.1-65.8 0-62.6.3-66.8-6.2-1.7-2.5-1.8-8.3-2.1-84L282 417h138v81.1zm45 4.4V543h-24v-81h24v40.5z"/><path d="M301 465.5c-5.3 2.8-5.5 4.3-5.5 37.5 0 33 .2 34.4 5.2 37.1 4.3 2.3 9.4 1.5 12.5-2l2.8-3.1v-32.3c0-31.4-.1-32.4-2.1-34.6-3.8-4-8.5-5-12.9-2.6zM346.4 465.6c-1.7.8-3.6 2.6-4.3 4-.7 1.7-1.1 12.6-1.1 33.9v31.3l2.5 3c3.1 3.7 7.6 4.7 11.9 2.7 6-2.9 6.1-3.2 6.4-35.5.4-33 0-35.9-5.1-39-3.8-2.4-6.2-2.5-10.3-.4zM392.5 464.9c-1.1.5-2.9 1.9-4 3.1-1.9 2.1-2 3.8-2.3 33.6-.3 35.2-.1 36.3 6.5 39 4.7 2 9.7.4 12.4-4 1.8-2.9 1.9-4.9 1.7-34.8l-.3-31.8-2.6-2.5c-2.7-2.8-8.2-4-11.4-2.6z"/></svg>